<?xml version="1.0" encoding="UTF-8" standalone="no"?>
<svg width="200px" height="50px" viewBox="0 0 200 50" version="1.1" xmlns="http://www.w3.org/2000/svg" xmlns:xlink="http://www.w3.org/1999/xlink" xmlns:sketch="http://www.bohemiancoding.com/sketch/ns">
    <!-- Generator: Sketch 3.3.3 (12081) - http://www.bohemiancoding.com/sketch -->
    <title>Imported Layers Copy 5</title>
    <desc>Created with Sketch.</desc>
    <defs></defs>
    <g id="Page-1" stroke="none" stroke-width="1" fill="none" fill-rule="evenodd" sketch:type="MSPage">
        <g id="152---iPad" sketch:type="MSArtboardGroup" transform="translate(-46.000000, -85.000000)" fill="#0580C7">
            <g id="Imported-Layers-Copy-5" sketch:type="MSLayerGroup" transform="translate(46.000000, 85.000000)">
                <path d="M39.77921,15.989605 C41.6191268,15.6771726 44.2044906,15.4416632 47.8456549,15.4416632 C51.5268191,15.4416632 54.150104,16.1463617 55.9131809,17.555343 C57.596341,18.8869023 58.7320582,21.080499 58.7320582,23.6652807 C58.7320582,26.2491476 57.8703534,28.4417464 56.3044491,29.9308108 C54.2673597,31.8491476 51.252973,32.7103534 47.7279002,32.7103534 C46.9450312,32.7103534 46.2403326,32.6714345 45.6919751,32.5915177 L45.6919751,42.0297713 L39.77921,42.0297713 L39.77921,15.989605 L39.77921,15.989605 Z M45.6919751,27.9726403 C46.2014137,28.0895634 46.8281913,28.1283992 47.6894802,28.1283992 C50.8612058,28.1283992 52.8197089,26.5226611 52.8197089,23.8210395 C52.8197089,21.3929314 51.1352183,19.9447817 48.1595842,19.9447817 C46.9450312,19.9447817 46.122578,20.0615385 45.6919751,20.1792931 L45.6919751,27.9726403 L45.6919751,27.9726403 Z" id="Fill-1" sketch:type="MSShapeGroup"></path>
                <path d="M70.2466528,35.2543035 L68.3668191,42.0297713 L62.17921,42.0297713 L70.2466528,15.6362578 L78.0785863,15.6362578 L86.2622869,42.0297713 L79.8405821,42.0297713 L77.8045738,35.2543035 L70.2466528,35.2543035 L70.2466528,35.2543035 Z M76.9423701,30.7910187 L75.2980457,25.1913514 C74.8276091,23.6263617 74.3585031,21.6681913 73.966736,20.1014553 L73.887817,20.1014553 C73.4962162,21.6681913 73.1045322,23.6652807 72.674262,25.1913514 L71.1073597,30.7910187 L76.9423701,30.7910187 L76.9423701,30.7910187 Z" id="Fill-2" sketch:type="MSShapeGroup"></path>
                <path d="M96.0937214,42.0297713 L96.0937214,31.2222869 L87.7531809,15.6362578 L94.5661538,15.6362578 L97.2688565,21.9816216 C98.0908108,23.8988773 98.6390852,25.3081081 99.3046985,27.0316008 L99.3835343,27.0316008 C99.9706445,25.3877755 100.597173,23.8599584 101.379709,21.9816216 L104.04341,15.6362578 L110.739044,15.6362578 L102.045239,31.0256133 L102.045239,42.0297713 L96.0937214,42.0297713" id="Fill-3" sketch:type="MSShapeGroup"></path>
                <path d="M116.967318,39.993763 C116.967318,38.5447817 117.946611,37.5259044 119.316923,37.5259044 C120.687235,37.5259044 121.626861,38.5447817 121.626861,39.993763 C121.626861,41.4031601 120.72632,42.4620374 119.27817,42.4620374 C117.906861,42.4620374 116.967318,41.4031601 116.967318,39.993763" id="Fill-4" sketch:type="MSShapeGroup"></path>
                <path d="M144.064865,41.1695634 C142.812225,41.7962578 140.306195,42.4211227 137.094802,42.4211227 C129.654387,42.4211227 124.054636,37.7223285 124.054636,29.0686071 C124.054636,20.8059875 129.654387,15.2060707 137.838254,15.2060707 C141.127817,15.2060707 143.203493,15.9107692 144.10395,16.3817048 L143.281331,19.1612474 C141.989854,18.534553 140.149522,18.0653638 137.955925,18.0653638 C131.76948,18.0653638 127.657547,22.0195426 127.657547,28.9508524 C127.657547,35.4119751 131.377547,39.5637422 137.799252,39.5637422 C139.875177,39.5637422 141.989854,39.1315593 143.360166,38.4659459 L144.064865,41.1695634" id="Fill-5" sketch:type="MSShapeGroup"></path>
                <path d="M169.675925,28.5595842 C169.675925,37.6444906 164.154012,42.4600416 157.41921,42.4600416 C150.44815,42.4600416 145.553763,37.0567152 145.553763,29.0676091 C145.553763,20.6891476 150.762578,15.2060707 157.811476,15.2060707 C165.01605,15.2060707 169.675925,20.7281497 169.675925,28.5595842 M149.195509,28.9907692 C149.195509,34.6286071 152.250478,39.680499 157.614969,39.680499 C163.019293,39.680499 166.074179,34.7074428 166.074179,28.7162578 C166.074179,23.4686902 163.33264,17.9876091 157.654719,17.9876091 C152.014886,17.9876091 149.195509,23.1941788 149.195509,28.9907692" id="Fill-6" sketch:type="MSShapeGroup"></path>
                <path d="M195.953763,30.4388358 C195.757921,26.7580873 195.522412,22.3339709 195.561497,19.0434096 L195.443576,19.0434096 C194.544366,22.1373805 193.446736,25.4268607 192.11526,29.0686071 L187.456466,41.8740956 L184.871601,41.8740956 L180.603326,29.3032017 C179.350686,25.5826195 178.292807,22.1762994 177.548358,19.0434096 L177.471518,19.0434096 C177.392599,22.3339709 177.195925,26.7580873 176.961247,30.7131809 L176.256965,42.0297713 L173.006154,42.0297713 L174.84657,15.6372557 L179.194012,15.6372557 L183.697131,28.4028274 C184.792682,31.6534719 185.69422,34.5517672 186.359834,37.2923077 L186.477422,37.2923077 C187.143368,34.629605 188.082245,31.7313098 189.257048,28.4028274 L193.956674,15.6372557 L198.303035,15.6372557 L199.947692,42.0297713 L196.619376,42.0297713 L195.953763,30.4388358" id="Fill-7" sketch:type="MSShapeGroup"></path>
                <path d="M18.7919335,26.008815 C18.7919335,28.0486486 17.1383784,29.7030353 15.0975468,29.7030353 C13.0576299,29.7030353 11.4043243,28.0486486 11.4043243,26.008815 C11.4043243,23.9689813 13.0576299,22.3144283 15.0975468,22.3144283 C17.1383784,22.3144283 18.7919335,23.9689813 18.7919335,26.008815" id="Fill-8" sketch:type="MSShapeGroup"></path>
                <path d="M18.7919335,14.8645322 C18.7919335,14.8645322 23.4647817,22.6948857 23.4647817,29.1347193 C23.4647817,35.5754678 20.8117256,44.4152183 13.9934304,48.2039085 C13.7540956,49.7825364 13.9934304,49.593763 15.7613306,49.0874844 C17.5291476,48.5835343 29.273763,43.1529314 29.652474,28.2511435 C29.652474,20.547027 26.6218711,14.1072765 22.5806237,10.8237006 C20.3076923,12.4655301 18.7919335,14.8645322 18.7919335,14.8645322" id="Fill-9" sketch:type="MSShapeGroup"></path>
                <path d="M10.9258212,34.59842 C10.9258212,34.59842 6.25297297,26.767817 6.25297297,20.3290644 C6.25297297,13.8884823 8.90602911,5.04773389 15.7243243,1.25987526 C15.9637422,-0.318586279 15.7243243,-0.12981289 13.9565073,0.375301455 C12.1886071,0.8804158 0.443825364,6.31101871 0.0652806653,21.2128067 C0.0652806653,28.9166736 3.09596674,35.3555094 7.13671518,38.6390852 C9.41014553,36.9982536 10.9258212,34.59842 10.9258212,34.59842" id="Fill-10" sketch:type="MSShapeGroup"></path>
            </g>
        </g>
    </g>
</svg>