<?xml version="1.0" standalone="no"?>
<!DOCTYPE svg PUBLIC "-//W3C//DTD SVG 20010904//EN"
 "http://www.w3.org/TR/2001/REC-SVG-20010904/DTD/svg10.dtd">
<svg version="1.0" xmlns="http://www.w3.org/2000/svg"
 width="653.000000pt" height="460.000000pt" viewBox="0 0 653.000000 460.000000"
 preserveAspectRatio="xMidYMid meet">
<metadata>
Created by potrace 1.11, written by Peter Selinger 2001-2013
</metadata>
<g transform="translate(0.000000,460.000000) scale(0.100000,-0.100000)"
fill="#000000" stroke="none">
<path d="M1915 4389 c-121 -20 -384 -130 -405 -169 -5 -9 -47 -45 -94 -78 -46
-34 -95 -75 -109 -91 -13 -16 -54 -43 -90 -59 -36 -17 -98 -51 -138 -77 -51
-33 -75 -43 -82 -36 -21 21 -74 12 -106 -18 -45 -42 -42 -75 14 -140 25 -29
45 -55 45 -58 0 -3 -9 -20 -20 -38 -36 -58 -56 -65 -187 -65 -99 0 -129 -4
-186 -25 -100 -35 -170 -81 -245 -160 -109 -115 -182 -284 -182 -424 0 -157
112 -381 226 -451 22 -14 62 -63 109 -135 77 -116 161 -204 240 -250 l44 -26
-29 -48 c-54 -87 -120 -239 -141 -322 -30 -118 -24 -270 14 -352 53 -115 187
-212 347 -251 55 -13 461 -86 482 -86 3 0 25 -34 47 -76 56 -104 111 -173 228
-285 204 -196 449 -322 628 -323 146 0 213 85 187 240 -43 259 -261 396 -777
488 -82 15 -168 30 -190 34 -46 9 -52 23 -54 126 -2 84 41 203 159 441 154
312 349 602 535 794 135 141 185 167 264 140 35 -13 36 -16 16 -83 -27 -89
-13 -170 34 -196 36 -19 124 -12 176 14 47 24 49 24 72 7 46 -37 123 -35 210
6 30 14 34 13 63 -9 42 -30 115 -30 187 1 l51 23 32 -24 c41 -30 116 -30 184
0 l49 22 53 -26 c57 -28 101 -27 172 2 29 12 37 11 57 -2 28 -18 75 -15 85 6
4 8 15 40 24 71 16 55 70 149 87 149 4 0 -5 -28 -21 -62 -39 -81 -39 -129 -3
-158 30 -23 72 -23 83 0 4 8 15 40 24 71 15 51 73 155 82 146 3 -2 -7 -29 -21
-61 -29 -66 -32 -125 -7 -156 26 -32 88 -37 146 -11 42 18 50 19 69 6 41 -26
89 -28 156 -5 57 19 65 20 80 5 10 -8 32 -15 49 -15 34 0 52 21 52 62 0 31 52
138 79 163 20 17 19 12 -8 -45 -45 -94 -42 -149 10 -175 39 -21 83 -19 130 5
l40 21 26 -21 c32 -25 113 -27 167 -5 48 20 112 79 120 110 8 33 -9 75 -32 75
-10 0 -29 -12 -43 -26 -13 -15 -44 -36 -68 -46 -61 -28 -71 -14 -46 59 19 54
22 57 68 68 69 17 99 49 95 100 -3 36 -6 40 -29 40 -24 -1 -26 2 -18 28 7 24
4 33 -16 53 -13 13 -29 24 -35 24 -31 0 -73 -36 -101 -86 -20 -34 -38 -54 -48
-53 -9 1 -22 1 -28 0 -16 -1 -17 -55 -2 -79 14 -22 -20 -108 -57 -143 -32 -30
-30 -14 6 57 36 72 39 123 8 158 -34 38 -65 41 -122 12 -42 -21 -51 -23 -63
-10 -15 14 -32 18 -68 14 -26 -3 -31 -12 -38 -70 -11 -92 -56 -155 -127 -175
-16 -4 -9 4 20 22 56 37 79 70 86 127 6 41 4 48 -24 75 -26 26 -38 31 -79 31
-65 0 -111 -26 -152 -86 -27 -39 -32 -43 -27 -22 10 45 -16 94 -58 108 -30 10
-42 8 -82 -10 -28 -12 -50 -16 -53 -11 -21 34 -103 31 -142 -5 -17 -15 -21
-15 -36 -2 -27 23 -51 28 -76 19 -19 -7 -25 -21 -36 -77 -14 -80 -31 -112 -74
-141 -51 -35 -76 -39 -32 -6 55 41 71 62 82 103 12 45 -1 94 -29 115 -32 22
-116 19 -155 -5 -42 -25 -91 -94 -104 -145 -8 -32 -20 -48 -52 -68 -23 -15
-55 -27 -72 -26 l-30 0 25 17 c14 9 42 32 63 51 140 125 163 314 41 337 -46 8
-118 -28 -154 -78 l-28 -39 -7 33 c-15 70 -80 103 -147 75 -48 -20 -103 -79
-135 -145 -24 -49 -28 -53 -36 -35 -19 42 -110 57 -166 28 -42 -21 -96 -89
-110 -137 -19 -64 -24 -71 -70 -96 -71 -40 -90 -13 -48 68 18 36 29 46 66 56
74 21 115 79 90 125 -7 14 -17 19 -31 16 -18 -5 -19 -2 -14 28 5 27 2 39 -14
55 -11 11 -29 20 -40 20 -26 0 -81 -50 -105 -94 -22 -41 -19 -41 -75 -21 -108
38 -180 6 -336 -149 -193 -194 -423 -528 -577 -841 -127 -257 -174 -408 -163
-523 6 -61 6 -62 -16 -57 -13 2 -103 18 -200 35 -272 46 -382 88 -452 171
-103 122 -97 300 19 534 92 184 86 176 120 167 55 -13 217 -7 285 11 143 39
300 140 400 259 68 81 103 144 144 259 41 114 118 214 174 223 31 5 42 0 80
-32 86 -73 89 -75 117 -68 41 10 75 53 75 93 0 27 14 55 59 116 32 45 77 111
99 147 22 36 63 90 91 120 29 30 71 80 94 110 23 30 59 75 80 100 45 53 100
164 117 239 27 117 -16 261 -129 432 -82 124 -199 245 -279 287 -107 57 -223
74 -357 51z m317 -46 c74 -35 132 -88 174 -159 27 -46 29 -55 29 -164 -1 -103
-3 -122 -29 -185 -43 -103 -72 -145 -100 -145 -35 0 -36 18 -5 80 79 157 77
325 -4 432 -22 29 -56 55 -102 78 -68 35 -68 35 -199 34 -115 0 -142 -4 -216
-28 -47 -15 -122 -47 -168 -72 -71 -37 -84 -41 -89 -27 -8 22 25 48 112 88
161 74 294 106 431 102 88 -3 109 -8 166 -34z m-678 -250 c15 -27 56 -88 91
-138 74 -104 78 -94 -60 -139 -113 -37 -116 -36 -159 33 -20 33 -52 78 -71
102 -20 23 -33 44 -30 48 19 20 182 139 191 140 6 1 23 -20 38 -46z m765 -115
c47 -17 17 -103 -128 -363 -34 -60 -69 -133 -78 -162 -14 -45 -31 -66 -129
-157 -62 -59 -116 -102 -119 -96 -3 5 -24 10 -47 10 -32 0 -47 -7 -74 -34 -46
-46 -47 -96 -3 -149 36 -43 31 -55 -32 -88 -21 -10 -43 -28 -49 -39 -10 -19
-14 -14 -45 48 -56 111 -212 248 -338 297 -31 12 -51 30 -77 67 -19 29 -63 80
-97 114 -36 36 -58 66 -53 69 12 8 60 -21 60 -35 0 -16 59 -42 80 -35 34 11
72 66 68 97 -5 29 12 48 154 173 25 22 47 45 49 52 2 7 45 24 94 38 50 14 155
57 235 94 161 77 228 101 310 111 61 9 182 2 219 -12z m65 -413 c84 -101 134
-196 119 -228 -17 -36 -133 -167 -148 -167 -7 0 -27 24 -43 54 -17 29 -56 81
-87 115 l-57 60 62 126 c37 74 68 125 75 123 7 -2 43 -39 79 -83z m-1741 -35
c-176 -63 -343 -206 -442 -380 -41 -73 -40 -57 3 28 42 83 114 180 169 227
102 88 216 145 287 144 34 0 34 -1 -17 -19z m262 -51 c62 -23 168 -99 194
-139 16 -25 15 -24 -18 3 -83 69 -216 113 -316 104 -225 -18 -442 -223 -501
-472 -11 -49 -15 -103 -12 -182 2 -70 0 -104 -6 -90 -81 208 -28 424 149 603
134 137 244 193 377 193 55 1 93 -5 133 -20z m290 -220 c58 -15 126 -41 121
-46 -2 -3 -20 0 -40 5 -20 6 -36 7 -36 1 0 -5 -11 -4 -26 1 -19 7 -23 7 -18
-2 5 -8 2 -9 -9 -5 -10 3 -17 2 -17 -4 0 -5 -12 -1 -27 8 -26 17 -27 17 -20 0
7 -20 -3 -23 -21 -5 -9 9 -12 9 -12 0 0 -9 -5 -10 -19 -2 -26 13 -34 13 -25
-2 5 -9 2 -9 -9 1 -15 12 -17 11 -17 -4 0 -13 -3 -15 -13 -6 -10 8 -17 7 -25
-1 -9 -9 -12 -9 -12 2 0 10 -4 8 -14 -5 -7 -10 -24 -20 -37 -22 -13 -2 -26 -8
-27 -13 -2 -6 -8 -7 -14 -4 -6 4 -14 0 -19 -7 -8 -12 -10 -12 -18 0 -8 12 -11
9 -16 -11 -5 -17 -12 -25 -21 -21 -9 3 -14 -1 -14 -12 0 -11 -5 -15 -15 -12
-8 4 -17 2 -20 -4 -4 -5 -10 -7 -15 -4 -4 3 -10 -5 -14 -18 -5 -17 -8 -19 -15
-8 -7 11 -10 9 -16 -8 -3 -11 -11 -21 -16 -21 -5 0 -9 -7 -9 -16 0 -10 -6 -14
-15 -10 -10 4 -15 -1 -15 -15 0 -11 -4 -17 -10 -14 -5 3 -10 -3 -10 -14 0 -12
-6 -21 -13 -21 -8 0 -19 -10 -25 -22 -6 -13 -11 -17 -11 -10 -1 21 -21 3 -21
-19 0 -11 -5 -17 -10 -14 -6 4 -15 -8 -22 -25 -8 -23 -13 -28 -19 -18 -6 9 -9
7 -9 -10 0 -13 -4 -21 -9 -18 -5 3 -11 -4 -14 -15 -3 -12 -10 -18 -16 -14 -7
4 -11 -8 -12 -32 0 -30 -2 -34 -9 -18 -10 23 -13 -8 -12 -130 l1 -70 -10 50
c-13 65 -4 172 20 240 28 79 104 191 181 266 79 77 193 140 302 169 82 21 221
26 283 9z m56 -99 c117 -22 281 -131 333 -221 18 -31 15 -29 -39 19 -101 92
-225 143 -345 140 l-65 -1 72 -7 c58 -5 91 -15 165 -53 51 -25 119 -67 151
-93 92 -74 121 -157 30 -88 -104 79 -196 108 -329 102 -85 -4 -99 -7 -181 -48
-71 -35 -104 -60 -173 -129 -99 -100 -144 -177 -159 -273 -26 -162 63 -320
229 -401 53 -26 76 -32 135 -32 38 0 86 3 105 7 24 5 30 5 19 -2 -9 -5 -58
-17 -110 -26 -76 -13 -107 -14 -169 -5 -186 28 -303 134 -350 316 -43 168 -12
305 106 465 56 76 42 78 -21 3 -135 -164 -161 -379 -70 -581 21 -47 22 -53 5
-32 -63 80 -110 212 -110 310 0 163 113 365 271 485 77 58 204 119 279 134 30
6 64 13 75 15 38 7 93 6 146 -4z m-158 -384 c-192 -145 -286 -316 -254 -461
22 -98 99 -171 210 -201 41 -11 43 -13 15 -13 -89 -2 -211 75 -256 162 -68
134 3 348 155 463 60 45 148 92 175 93 8 1 -12 -19 -45 -43z m2169 27 c24 -22
24 -104 -2 -160 -23 -51 -99 -135 -149 -165 -20 -12 -38 -23 -40 -24 -2 -2 2
-10 9 -19 21 -25 81 -18 132 15 41 27 46 35 51 78 12 102 82 237 141 273 38
23 103 25 128 2 24 -22 24 -104 -2 -160 -23 -51 -99 -135 -149 -165 -20 -12
-38 -23 -40 -24 -13 -11 27 -34 58 -34 62 1 121 46 139 106 27 91 95 154 166
154 62 0 86 -21 86 -75 0 -35 -6 -52 -32 -80 -36 -42 -102 -79 -128 -72 -13 3
-16 0 -13 -13 12 -45 104 -26 168 34 36 33 48 52 60 101 8 32 15 67 15 77 0
13 8 18 29 18 43 0 56 -22 37 -62 -16 -32 -15 -32 24 10 50 53 99 76 135 62
22 -8 27 -17 27 -40 0 -3 -3 -16 -7 -30 -6 -21 -4 -21 14 7 11 18 31 39 45 48
31 21 89 24 110 6 26 -21 20 -88 -14 -159 -35 -75 -37 -92 -11 -92 31 0 71 43
71 77 0 45 47 131 88 158 73 50 172 22 172 -47 0 -63 -73 -140 -146 -154 -38
-7 -43 -18 -16 -33 35 -19 131 18 175 67 21 23 47 106 47 148 0 36 21 47 59
32 19 -7 22 -14 19 -41 l-3 -33 41 43 c51 53 102 61 137 21 25 -30 21 -65 -18
-147 -19 -40 -33 -77 -29 -82 22 -36 103 40 124 116 8 29 18 45 29 45 10 1 6
6 -11 16 -16 8 -28 23 -28 34 0 16 5 19 28 14 21 -4 29 -2 29 9 0 8 14 37 31
64 50 78 112 94 112 29 -1 -17 -7 -42 -15 -56 -22 -39 -18 -44 21 -21 45 27
46 27 42 -11 -4 -39 -55 -78 -102 -78 -28 0 -33 -5 -53 -55 -27 -65 -29 -98
-8 -115 23 -19 81 1 134 46 34 30 45 34 52 23 15 -23 10 -37 -23 -75 -41 -47
-100 -73 -161 -74 -42 0 -53 5 -77 30 -25 27 -29 28 -41 13 -36 -42 -126 -56
-159 -23 -28 28 -25 66 10 143 48 105 36 127 -31 58 -35 -37 -79 -131 -79
-169 -1 -45 -56 -57 -74 -16 l-10 21 -46 -24 c-63 -33 -139 -35 -180 -4 l-30
22 -28 -21 c-40 -30 -105 -37 -137 -16 -35 23 -33 74 5 154 33 70 37 92 16 92
-38 0 -116 -121 -134 -207 -9 -44 -33 -54 -63 -27 -27 24 -24 64 11 141 28 61
37 93 25 93 -51 0 -145 -149 -145 -230 0 -31 -57 -28 -71 4 l-11 23 -43 -24
c-30 -16 -60 -24 -98 -24 -60 -1 -91 11 -107 41 -10 19 -11 19 -48 -5 -55 -36
-131 -50 -175 -31 -20 8 -41 23 -48 34 -12 19 -13 19 -46 -4 -51 -35 -132 -49
-176 -30 -20 8 -41 24 -47 36 -10 19 -13 20 -28 7 -66 -57 -192 -67 -236 -18
-17 19 -19 19 -73 -10 -93 -49 -165 -37 -191 32 -13 32 9 142 32 168 23 26 21
30 -29 52 -101 45 -168 19 -300 -116 -259 -265 -570 -769 -686 -1115 -31 -94
-38 -191 -19 -261 10 -34 14 -37 58 -43 139 -19 432 -83 536 -117 255 -84 374
-190 411 -368 33 -156 -22 -231 -168 -231 -163 0 -413 132 -611 321 -106 101
-164 176 -222 285 -37 71 -43 77 -75 81 -107 11 -454 77 -518 99 -150 49 -257
147 -297 272 -38 118 0 324 91 499 77 149 78 150 107 141 l26 -9 -45 -74 c-96
-160 -149 -334 -141 -459 7 -97 38 -164 104 -225 91 -84 174 -109 579 -180 61
-10 111 -17 113 -16 1 1 -2 31 -7 67 -19 114 15 235 135 486 178 375 466 787
665 952 109 91 150 102 251 69 52 -18 72 -21 75 -12 9 25 77 123 90 127 18 7
40 -3 47 -20 7 -19 -20 -85 -41 -101 -15 -12 -15 -13 4 -13 11 0 32 9 46 20
30 24 33 24 41 4 14 -36 -52 -94 -109 -94 -26 0 -32 -6 -47 -43 -41 -99 -32
-144 26 -133 17 4 48 18 68 31 45 30 45 30 51 8 3 -10 3 1 0 24 -7 57 34 143
85 178 47 32 122 35 152 5 42 -42 13 -128 -60 -178 -50 -34 -80 -39 -98 -16
-13 18 -14 17 -7 -6 11 -37 20 -43 59 -42 37 1 105 31 123 54 6 7 14 35 18 63
15 105 78 226 138 264 39 25 103 27 129 4z"/>
<path d="M1500 1057 c0 -19 77 -145 130 -211 115 -144 273 -268 444 -351 119
-57 179 -75 250 -75 94 0 121 33 114 137 -9 129 -83 227 -225 300 -125 64
-284 109 -557 157 -83 14 -142 29 -147 37 -5 8 -9 10 -9 6z m285 -92 c435 -86
613 -202 632 -414 5 -54 3 -62 -20 -85 -33 -33 -88 -34 -183 -5 -235 72 -528
304 -642 508 l-23 41 33 -6 c18 -3 110 -21 203 -39z"/>
<path d="M5445 2381 c-29 -12 -51 -40 -75 -93 -19 -44 -23 -47 -74 -58 -92
-19 -171 -95 -192 -185 -7 -30 -40 -75 -56 -75 -12 0 -8 60 6 100 7 19 17 35
22 35 20 0 34 18 34 43 -1 55 -48 85 -130 85 -110 -1 -215 -82 -246 -189 -14
-49 -38 -83 -50 -71 -3 3 8 32 25 66 39 76 42 137 8 169 -28 26 -84 29 -128 6
-28 -14 -32 -14 -48 0 -24 22 -79 20 -119 -4 -30 -19 -34 -19 -57 -4 -13 8
-38 14 -57 12 -30 -3 -34 -7 -42 -48 -13 -61 -39 -80 -50 -36 -3 13 -27 41
-53 62 -37 30 -55 38 -84 38 -83 -3 -162 -80 -194 -189 -14 -49 -39 -85 -50
-73 -3 3 8 34 25 69 17 36 30 80 30 102 0 78 -83 113 -159 66 -30 -18 -35 -19
-50 -5 -21 19 -72 21 -89 4 -7 -7 -12 -27 -12 -44 0 -18 -12 -69 -26 -114 -32
-103 -30 -155 9 -184 26 -19 30 -19 55 -6 20 12 28 27 34 60 9 53 50 140 78
165 18 17 18 12 -6 -40 -55 -121 -40 -182 48 -192 35 -4 58 0 90 16 l44 21 39
-20 c49 -25 88 -25 141 -1 43 20 101 82 110 119 12 43 24 21 18 -31 -8 -65 15
-100 64 -100 18 0 34 2 37 5 3 3 12 31 20 62 15 57 42 115 70 150 26 33 26 11
1 -45 -36 -79 -37 -118 -6 -149 22 -22 72 -27 87 -7 6 6 14 30 18 51 8 49 46
125 74 150 20 18 20 16 -4 -39 -36 -79 -36 -132 -1 -162 32 -28 92 -31 141 -7
31 14 35 14 60 -2 33 -22 105 -23 137 -2 21 14 27 14 49 2 33 -19 78 -17 119
4 34 17 36 17 62 -2 35 -24 107 -26 142 -2 24 15 29 15 48 1 30 -21 76 -19
123 5 l39 20 44 -21 c87 -43 184 -8 293 105 78 81 101 95 124 76 27 -23 17
-78 -36 -186 -28 -58 -54 -103 -57 -102 -179 94 -312 68 -312 -62 0 -48 17
-73 67 -99 28 -14 165 -14 215 1 34 10 40 9 52 -7 19 -26 11 -40 -32 -58 -63
-27 -80 -29 -155 -16 -84 14 -134 7 -173 -23 -19 -15 -38 -21 -64 -19 -43 3
-193 -66 -221 -102 -9 -11 -88 -57 -175 -102 -102 -52 -162 -89 -169 -103 -7
-15 -20 -22 -49 -24 -34 -3 -42 -8 -62 -43 -26 -45 -31 -97 -11 -113 7 -6 43
-14 79 -18 66 -7 67 -6 85 22 12 20 25 28 39 26 21 -3 63 19 247 128 38 22 88
43 110 46 43 6 164 71 198 105 10 10 19 29 19 42 0 13 12 34 26 48 24 23 32
24 157 24 147 0 188 13 241 75 34 41 36 116 5 166 l-20 33 20 38 c68 127 101
215 101 269 0 107 -49 164 -143 164 -64 0 -93 -17 -167 -97 -57 -63 -93 -92
-113 -93 -5 0 11 15 35 33 56 42 81 90 74 142 -9 75 -85 107 -169 71 -47 -19
-102 -88 -116 -144 -17 -64 -33 -96 -54 -100 -31 -6 -20 45 39 182 68 159 76
197 43 220 -26 18 -34 19 -64 7z m59 -34 c12 -19 -2 -63 -70 -217 -39 -88 -55
-172 -35 -184 18 -11 75 27 83 55 4 13 12 43 18 67 29 112 162 181 225 117 59
-58 4 -157 -110 -201 -77 -29 -41 -56 44 -33 36 10 61 28 111 80 36 37 81 76
100 88 92 55 190 -11 190 -129 0 -28 -102 -255 -127 -282 -14 -16 -16 -16 -33
0 -18 17 -17 21 35 127 65 132 73 165 51 211 -29 63 -90 42 -180 -61 -72 -81
-121 -109 -198 -109 -45 -1 -61 3 -81 22 l-24 23 -44 -26 c-52 -29 -102 -32
-127 -7 -17 17 -19 17 -47 0 -43 -26 -110 -24 -138 5 l-23 22 -39 -22 c-48
-27 -99 -29 -123 -5 -17 17 -19 17 -47 0 -43 -26 -110 -24 -138 5 l-23 22 -33
-22 c-41 -28 -106 -31 -133 -6 -27 24 -22 75 13 155 41 93 27 111 -35 46 -42
-45 -86 -135 -86 -179 0 -25 -25 -35 -56 -21 -34 16 -32 65 6 149 45 100 39
117 -24 62 -40 -34 -82 -116 -92 -177 -7 -47 -27 -59 -60 -37 -28 18 -31 50
-10 119 13 42 13 47 -1 42 -8 -3 -22 -6 -31 -6 -11 0 -24 -17 -36 -45 -10 -25
-36 -61 -59 -80 -64 -55 -134 -59 -183 -10 l-24 25 -21 -21 c-43 -43 -125 -53
-159 -19 -28 28 -25 64 10 138 30 64 38 102 21 102 -39 0 -118 -125 -128 -202
-7 -51 -26 -65 -58 -44 -32 21 -33 59 -4 152 12 38 24 89 28 114 5 37 10 46
29 48 29 4 52 -14 52 -43 0 -20 4 -19 40 17 33 31 48 38 80 38 72 0 88 -56 44
-150 -39 -83 -43 -96 -34 -109 6 -10 13 -10 37 2 31 16 44 38 64 102 39 129
148 191 232 133 47 -33 58 -50 54 -80 -8 -62 77 -11 88 52 6 36 10 40 36 40
40 0 55 -31 35 -71 -11 -22 -2 -16 38 26 44 46 57 55 87 55 19 0 40 -5 47 -12
15 -15 15 -51 0 -66 -6 -6 -9 -14 -6 -17 3 -3 16 10 28 30 25 41 66 65 109 65
67 0 80 -68 31 -165 -33 -68 -38 -105 -14 -105 23 0 74 55 74 80 0 55 75 146
142 174 56 24 153 21 178 -4 11 -11 20 -30 20 -41 0 -17 -4 -20 -22 -15 -60
18 -90 18 -134 1 -60 -23 -98 -78 -98 -143 -1 -42 2 -47 22 -50 31 -5 67 38
88 103 21 64 40 85 76 85 23 0 28 -4 24 -17 -35 -122 -37 -134 -26 -148 7 -8
18 -15 25 -15 27 0 70 49 82 91 18 65 47 106 100 139 33 21 59 30 90 30 l43 0
29 64 c39 87 87 118 115 73z m312 -593 c75 -38 151 -114 160 -159 11 -59 -14
-98 -83 -131 -59 -30 -100 -33 -244 -23 -46 3 -61 0 -78 -15 -12 -11 -22 -17
-24 -15 -27 46 -27 48 1 70 25 20 34 21 143 14 95 -5 123 -4 155 10 77 32 92
67 51 118 -21 27 -23 28 -54 12 -44 -22 -151 -30 -196 -16 -42 14 -77 53 -77
86 0 32 36 73 73 83 42 11 110 -2 173 -34z m-485 -421 c25 -30 42 -70 35 -82
-4 -6 -2 -11 4 -11 6 0 9 -4 6 -9 -3 -5 -17 -8 -31 -8 -13 0 -22 4 -19 9 3 5
11 7 18 5 6 -2 12 5 12 17 2 20 -1 19 -32 -9 -18 -16 -65 -47 -104 -68 l-70
-38 0 26 c0 17 -12 39 -33 60 l-33 33 95 46 c104 50 130 55 152 29z m-364
-168 c29 -20 49 -91 32 -111 -7 -8 -20 -12 -35 -8 -19 5 -27 0 -41 -26 -17
-30 -20 -31 -68 -25 -72 9 -83 23 -60 75 20 45 40 60 78 60 15 0 31 10 41 25
19 29 24 30 53 10z"/>
<path d="M4042 2128 c-48 -52 -66 -124 -42 -169 8 -14 21 -19 48 -18 20 0 31
3 24 6 -9 3 -5 13 13 35 14 16 25 36 25 44 0 11 7 14 23 10 22 -6 22 -6 1 5
-27 14 -49 54 -46 85 2 30 -18 31 -46 2z"/>
<path d="M5280 2131 c-59 -31 -102 -145 -68 -179 36 -36 89 21 118 126 6 24
14 50 17 58 7 20 -25 18 -67 -5z"/>
</g>
</svg>
